# xmcd CD database file
#
# Track frame offsets:
#	150
#	23267
#	37287
#	58807
#	81990
#	109445
#	132202
#	159825
#	183627
#	207182
#	232092
#	248345
#
# Disc length: 3349 seconds
#
# Revision: 0
# Processed by: cddbd v1.4PL0 Copyright (c) Steve Scherf et al.
# Submitted via: CDex 1.51
#
DISCID=9f0d130c
DTITLE=BJ Emery and Maurice John Vauhn Horns - BJ Emery and Maurice John Vauhn Horns
DYEAR=1998
DGENRE=Blues
TTITLE0=I Want to Take You Higher
TTITLE1=I'm Ready For You
TTITLE2=Big Bad Circle
TTITLE3=Talk to Me Baby
TTITLE4=Talk to Me Baby (Reprise)
TTITLE5=You Ought to Be Dancing
TTITLE6=Drowning in the Sea of Love
TTITLE7=Nothin' But A Woman
TTITLE8=I Want to Hear Some Blues
TTITLE9=Fridgidare Woman
TTITLE10=I Gamble, I Gamble
TTITLE11=Problems
EXTD=YEAR: 1998
EXTT0=
EXTT1=
EXTT2=
EXTT3=
EXTT4=
EXTT5=
EXTT6=
EXTT7=
EXTT8=
EXTT9=
EXTT10=
EXTT11=
PLAYORDER=
